<?xml version="1.0" encoding="utf-8"?>
<!-- Generator: Adobe Illustrator 24.1.0, SVG Export Plug-In . SVG Version: 6.00 Build 0)  -->
<svg version="1.1" id="Layer_1" xmlns="http://www.w3.org/2000/svg" xmlns:xlink="http://www.w3.org/1999/xlink" x="0px" y="0px"
	 viewBox="0 0 357.1 357.2" style="enable-background:new 0 0 357.1 357.2;" xml:space="preserve">
<style type="text/css">
	.Graphic_x0020_Style{fill:none;}
	
		.st0{opacity:0.19;fill:none;stroke:#000000;stroke-width:3;stroke-linecap:round;stroke-miterlimit:10;stroke-dasharray:0,5;enable-background:new    ;}
	.st1{fill:none;stroke:#000000;stroke-width:3;stroke-linecap:round;stroke-miterlimit:10;stroke-dasharray:0,5;}
	.st2{opacity:0.19;enable-background:new    ;}
	
		.st3{opacity:0.19;fill:none;stroke:#000000;stroke-width:3;stroke-linecap:round;stroke-linejoin:round;stroke-miterlimit:10;stroke-dasharray:0,5;}
	
		.st4{fill:none;stroke:#000000;stroke-width:3;stroke-linecap:round;stroke-linejoin:round;stroke-miterlimit:10;stroke-dasharray:0,5;}
</style>
<g>
	<path class="st0" d="M65.9-15.6C71.4-4.6,76.4,5.8,81,15.8c4.1,8.8,7.9,17.3,11.4,25.3c92.7,214.4-27,166.6-49.3,140.5"/>
	<g>
		<line class="st1" x1="56.9" y1="-15.6" x2="56.9" y2="-15.6"/>
		<path class="st1" d="M62.1-5c3.5,7.1,6.8,14,9.9,20.7C76.1,24.5,79.9,33,83.4,41c87.9,203.3-15.2,170.9-45.1,144.7"/>
		<line class="st1" x1="34.1" y1="181.5" x2="34.1" y2="181.5"/>
	</g>
</g>
<g>
	<path class="st0" d="M321.8,90.8c-44.6-13-44.1,60.2-88,52.5c-43.8-7.6-132-79.9-132-79.9s171.4,240.1,201,238.6"/>
	<g>
		<line class="st1" x1="312.8" y1="91" x2="312.8" y2="91"/>
		<path class="st1" d="M300.9,89.5c-33.1,2.1-36.5,60.9-76.1,54C187,136.9,116.3,82.3,97.5,67.4"/>
		<line class="st1" x1="92.8" y1="63.6" x2="92.8" y2="63.6"/>
		<path class="st1" d="M99.8,73.4c30.6,42.4,152.3,208.6,188.2,227.2"/>
		<line class="st1" x1="293.8" y1="302.2" x2="293.8" y2="302.2"/>
	</g>
</g>
<g>
	<path class="st2" d="M44.1,185l-1,6.4c-0.3,2.1-3.1,2.5-4,0.7l-12.7-24.3c-1-1.9,1-3.9,2.9-2.9l25.1,12.5c1.8,0.9,1.5,3.6-0.5,4
		l-8.1,1.8C44.9,183.4,44.2,184.1,44.1,185z"/>
	<path d="M35.1,185l-1,6.4c-0.3,2.1-3.1,2.5-4,0.7l-12.7-24.3c-1-1.9,1-3.9,2.9-2.9l25.1,12.5c1.8,0.9,1.5,3.6-0.5,4l-8.1,1.8
		C35.9,183.4,35.2,184.1,35.1,185z"/>
</g>
<g>
	<path class="st2" d="M310.9,88.3l-1.6-6.3c-0.5-2,1.8-3.5,3.4-2.2l21.4,17.1c1.6,1.3,0.6,3.9-1.5,3.8l-28.1-1.4
		c-2-0.1-2.8-2.7-1.2-3.9l6.7-4.9C310.8,90,311.1,89.1,310.9,88.3z"/>
	<path d="M301.9,88.3l-1.6-6.3c-0.5-2,1.8-3.5,3.4-2.2l21.4,17.1c1.6,1.3,0.6,3.9-1.5,3.8l-28.1-1.4c-2-0.1-2.8-2.7-1.2-3.9l6.7-4.9
		C301.8,90,302.1,89.1,301.9,88.3z"/>
</g>
<g>
	<path class="st2" d="M298,302.7l-1.6-6.3c-0.5-2,1.8-3.5,3.4-2.2l21.4,17.1c1.6,1.3,0.6,3.9-1.5,3.8l-28.1-1.4
		c-2-0.1-2.8-2.7-1.2-3.9l6.7-4.9C297.9,304.5,298.3,303.6,298,302.7z"/>
	<path d="M293.1,300.5l-1.6-6.3c-0.5-2,1.8-3.5,3.4-2.2l21.4,17.1c1.6,1.3,0.6,3.9-1.5,3.8l-28.1-1.4c-2-0.1-2.8-2.7-1.2-3.9
		l6.7-4.9C293,302.3,293.4,301.4,293.1,300.5z"/>
</g>
<g>
	<path class="st3" d="M-1695.4,378.2c261,1,258-203,258-203"/>
	<path class="st4" d="M-1704.4,378.2c261,1,258-203,258-203"/>
</g>
<g>
	<path class="st3" d="M-1437.4,372.2c-258,6-198,48-198,48"/>
	<path class="st4" d="M-1446.4,372.2c-258,6-198,48-198,48"/>
</g>
<g>
	<path class="st3" d="M-1556.9,96.9c-67.6,38.3-75.9,109-22.1,135c53.7,26,124.5-53.5,95.9-81.8s-140.4-43.7-176.9-6.7
		c-36.5,37-52.7,42.2-57.3,32.9"/>
	<path class="st4" d="M-1565.9,96.9c-67.6,38.3-75.9,109-22.1,135c53.7,26,124.5-53.5,95.9-81.8s-140.4-43.7-176.9-6.7
		c-36.5,37-52.7,42.2-57.3,32.9"/>
</g>
</svg>
