<?xml version="1.0" encoding="utf-8"?>
<!-- Generator: Adobe Illustrator 24.1.0, SVG Export Plug-In . SVG Version: 6.00 Build 0)  -->
<svg version="1.1" id="Layer_1" xmlns="http://www.w3.org/2000/svg" xmlns:xlink="http://www.w3.org/1999/xlink" x="0px" y="0px"
	 viewBox="0 0 357.1 357.2" style="enable-background:new 0 0 357.1 357.2;" xml:space="preserve">
<style type="text/css">
	
		.Graphic_x0020_Style_x0020_2{fill:none;stroke:#231F20;stroke-width:3.1274;stroke-linecap:round;stroke-opacity:0.2;stroke-dasharray:0,5.2123;}
	.st0{opacity:0.19;}
	.st1{fill:#FFF7F3;}
	.st2{fill:none;stroke:#231F20;stroke-width:3;stroke-linecap:round;stroke-dasharray:0,4.4521;}
	
		.st3{opacity:0.19;fill:none;stroke:#000000;stroke-width:5;stroke-linecap:round;stroke-miterlimit:10;stroke-dasharray:0,12;enable-background:new    ;}
	.st4{fill:none;stroke:#000000;stroke-width:5;stroke-linecap:round;stroke-miterlimit:10;}
	.st5{fill:none;stroke:#000000;stroke-width:5;stroke-linecap:round;stroke-miterlimit:10;stroke-dasharray:0,11.8779;}
	.st6{fill:none;stroke:#000000;stroke-width:5;stroke-linecap:round;stroke-miterlimit:10;stroke-dasharray:0,12.0904;}
	.st7{fill:none;stroke:#000000;stroke-width:5;stroke-linecap:round;stroke-miterlimit:10;stroke-dasharray:0,12.0747;}
	.st8{opacity:0.19;enable-background:new    ;}
	
		.st9{fill:none;stroke:#000000;stroke-width:3.1274;stroke-linecap:round;stroke-linejoin:round;stroke-miterlimit:10;stroke-dasharray:0,5.2123;}
	.st10{opacity:0.2;}
	.st11{fill:none;stroke:#231F20;stroke-width:3.1274;stroke-linecap:round;stroke-dasharray:0,5.2123;}
	.st12{fill:#6B6565;}
	.st13{fill:#231F20;}
	.st14{fill:#90CEE1;}
	.st15{fill:#FFD658;}
	.st16{fill:#6159B2;}
	.st17{fill:none;stroke:#050706;stroke-width:7.9114;stroke-linecap:round;stroke-miterlimit:10;}
	.st18{fill:#050706;}
	.st19{fill:#90C969;}
	.st20{fill:none;stroke:#050706;stroke-width:3.0327;stroke-miterlimit:10;}
	.st21{fill:#91452A;}
	.st22{fill:#FFFFFF;}
	.st23{fill:none;stroke:#231F20;stroke-width:3.8348;stroke-linecap:round;stroke-miterlimit:10;stroke-dasharray:0,6.1357;}
	.st24{fill:none;stroke:#000000;stroke-width:3.0678;stroke-linecap:round;stroke-miterlimit:10;stroke-dasharray:0,6.1357;}
</style>
<g>
	<rect x="698" y="408" class="st0" width="312" height="312"/>
	<rect x="689" y="408" class="st1" width="312" height="312"/>
	<rect x="689" y="408" class="st2" width="312" height="312"/>
</g>
<g>
	<path class="st3" d="M1176-131.3c5.5,11,10.5,21.4,15.1,31.4c4.1,8.8,7.9,17.3,11.4,25.3c92.7,214.4-27,166.6-49.3,140.5"/>
	<g>
		<line class="st4" x1="1167" y1="-131.3" x2="1167" y2="-131.3"/>
		<path class="st5" d="M1172.2-120.7c3.5,7.1,6.8,14,9.9,20.7c4.1,8.8,7.9,17.3,11.4,25.3c87.9,203.3-15.2,170.9-45.1,144.7"/>
		<line class="st4" x1="1144.2" y1="65.8" x2="1144.2" y2="65.8"/>
	</g>
</g>
<g>
	<path class="st3" d="M1424.7-34c-44.3-14.1-45.6,59.1-89.3,50.3c-43.6-8.7-130-83.1-130-83.1s165.5,244.2,195.1,243.5"/>
	<g>
		<line class="st4" x1="1415.7" y1="-34" x2="1415.7" y2="-34"/>
		<path class="st6" d="M1403.8-35.8c-33.1,1.3-38,60-77.4,52.1c-37.6-7.5-106.9-63.8-125.4-79.2"/>
		<line class="st4" x1="1196.4" y1="-66.8" x2="1196.4" y2="-66.8"/>
		<path class="st7" d="M1203.2-56.8c29.6,43.1,147.1,212.3,182.6,231.7"/>
		<line class="st4" x1="1391.5" y1="176.7" x2="1391.5" y2="176.7"/>
	</g>
</g>
<g>
	<path class="st8" d="M1147.2,63.3l-1,6.4c-0.3,2.1-3.1,2.5-4,0.7l-12.7-24.3c-1-1.9,1-3.9,2.9-2.9l25.1,12.5c1.8,0.9,1.5,3.6-0.5,4
		l-8.1,1.8C1148,61.7,1147.3,62.4,1147.2,63.3z"/>
	<path d="M1138.2,63.3l-1,6.4c-0.3,2.1-3.1,2.5-4,0.7l-12.7-24.3c-1-1.9,1-3.9,2.9-2.9l25.1,12.5c1.8,0.9,1.5,3.6-0.5,4l-8.1,1.8
		C1139,61.7,1138.3,62.4,1138.2,63.3z"/>
</g>
<g>
	<path class="st8" d="M1433-33.4l-1.6-6.3c-0.5-2,1.8-3.5,3.4-2.2l21.4,17.1c1.6,1.3,0.6,3.9-1.5,3.8l-28.1-1.4
		c-2-0.1-2.8-2.7-1.2-3.9l6.7-4.9C1432.9-31.7,1433.2-32.6,1433-33.4z"/>
	<path d="M1424-33.4l-1.6-6.3c-0.5-2,1.8-3.5,3.4-2.2l21.4,17.1c1.6,1.3,0.6,3.9-1.5,3.8l-28.1-1.4c-2-0.1-2.8-2.7-1.2-3.9l6.7-4.9
		C1423.9-31.7,1424.2-32.6,1424-33.4z"/>
</g>
<g>
	<path class="st8" d="M1411.1,177l-1.6-6.3c-0.5-2,1.8-3.5,3.4-2.2l21.4,17.1c1.6,1.3,0.6,3.9-1.5,3.8l-28.1-1.4
		c-2-0.1-2.8-2.7-1.2-3.9l6.7-4.9C1411,178.8,1411.4,177.9,1411.1,177z"/>
	<path d="M1402.1,177l-1.6-6.3c-0.5-2,1.8-3.5,3.4-2.2l21.4,17.1c1.6,1.3,0.6,3.9-1.5,3.8l-28.1-1.4c-2-0.1-2.8-2.7-1.2-3.9l6.7-4.9
		C1402,178.8,1402.4,177.9,1402.1,177z"/>
</g>
<g>
	<g>
		<path class="st9" d="M536.5,227c272.1,1,269-211.6,269-211.6"/>
		<path class="st9" d="M512,240.1c272.1,1,317.9-143.3,317.9-143.3"/>
		<path class="st9" d="M506.8,254.5c54.7-1.1,189.1-6.4,324.5-86.1"/>
		<g>
			<path class="st9" d="M648,189.4c12.1-22,8.1-44,20.4-66c10.3-22,36.9-44,63.4-66c26.5-22,53-44,63.1-66c12.1-22,7.9-44,19.4-66"
				/>
		</g>
		<g>
			<path class="st9" d="M512,189.4c6.2-12.6,8.3-30.7,10.4-48.8c2.1-18.5,4.3-37,10.5-61.1c5.2-21.6,14.5-45.8,25.8-49.4
				c11.3-5.3,24.6,10.1,37.9,28.6c13.2,18.6,26.5,33,37.6,26.8c11.1-4.5,20.2-29.7,25.2-51.4c6-24.4,7.9-42.6,9.7-60.8
				c1.8-17.7,3.6-35.5,9.2-48"/>
		</g>
		<line class="st9" x1="506.8" y1="267.8" x2="829.9" y2="230.2"/>
	</g>
	<g class="st10">
		<path class="st11" d="M545.9,227c272.1,1,269-211.6,269-211.6"/>
		<path class="st11" d="M521.4,240.1c272.1,1,317.9-143.3,317.9-143.3"/>
		<path class="st11" d="M516.2,254.5c54.7-1.1,189.1-6.4,324.5-86.1"/>
		<g>
			<path class="st11" d="M657.4,189.4c12.1-22,8.1-44,20.4-66c10.3-22,36.9-44,63.4-66c26.5-22,53-44,63.1-66
				c12.1-22,7.9-44,19.4-66"/>
			<path class="st11" d="M657.4,189.4c12.1-22,8.1-44,20.4-66c10.3-22,36.9-44,63.4-66c26.5-22,53-44,63.1-66
				c12.1-22,7.9-44,19.4-66"/>
		</g>
		<g>
			<path class="st11" d="M521.4,189.4c6.2-12.6,8.3-30.7,10.4-48.8c2.1-18.5,4.3-37,10.5-61.1c5.2-21.6,14.5-45.8,25.8-49.4
				c11.3-5.3,24.6,10.1,37.9,28.6c13.2,18.6,26.5,33,37.6,26.8c11.1-4.5,20.2-29.7,25.2-51.4c6-24.4,7.9-42.6,9.7-60.8
				c1.8-17.7,3.6-35.5,9.2-48"/>
			<path class="st11" d="M521.4,189.4c6.2-12.6,8.3-30.7,10.4-48.8c2.1-18.5,4.3-37,10.5-61.1c5.2-21.6,14.5-45.8,25.8-49.4
				c11.3-5.3,24.6,10.1,37.9,28.6c13.2,18.6,26.5,33,37.6,26.8c11.1-4.5,20.2-29.7,25.2-51.4c6-24.4,7.9-42.6,9.7-60.8
				c1.8-17.7,3.6-35.5,9.2-48"/>
		</g>
		<line class="st11" x1="516.2" y1="267.8" x2="839.3" y2="230.2"/>
	</g>
</g>
<path class="st12" d="M-141.4,206.7c-11.2-3.5-18-14.4-16.9-25.6c-0.9,1.5-1.6,3.1-2.1,4.8c-4.1,12.9,3,26.6,15.9,30.7
	c12.9,4.1,26.6-3,30.7-15.9c0.5-1.7,0.9-3.4,1-5.1C-118.4,205.3-130.2,210.2-141.4,206.7z"/>
<path class="st12" d="M-212.3,314.9l-4.4,1.5c-8.1,2.7-16.8,3.3-25.3,1.7l-48.5-9.2c-16.7-3.2-27.7-19.3-24.5-36l5-26.6
	c2.6-13.6,15.6-22.5,29.2-19.9l57.2,10.8l7.2,0.2c27.2,0.8,53.8-8.8,74.2-26.8l0,0l-2.5,21.3C-149.2,270.3-175.6,302.7-212.3,314.9z
	"/>
<path class="st12" d="M-224.5,318L-224.5,318c-20.3,4.1-41.1,5.3-61.8,3.5l-1.4-0.1c-3.3,0.1-6.1-2.4-6.3-5.7l-0.2-4.9l73.2-3.2
	L-224.5,318z"/>
<path class="st12" d="M-215.2,281.6L-215.2,281.6c20.7,0.1,41.3,3.1,61.2,9.1l1.3,0.4c3.3,0.5,5.5,3.6,5,6.9l0,0
	c-0.4,2.7-2.9,4.5-5.6,4l-67.6-10.8L-215.2,281.6z"/>
<circle class="st13" cx="-250.7" cy="255.8" r="4.6"/>
<path class="st14" d="M-228.9,236.1c18.6,38.1,0,82.6,0,82.6l8-1.2c0,0,24.2-48,0-80.3L-228.9,236.1z"/>
<path class="st14" d="M-244.6,406.8c-14.3,4.4-6.6-32.5,3.2-53.7c9.7-21.2,14.3-34,13.4-36.8c-0.9-2.8,5.4,1.9,5.4,1.9
	s1.5,45.6-3.1,53.5C-230.4,379.6-257.3,404.7-244.6,406.8z"/>
<rect x="-124.3" y="-57.4" class="st15" width="95.3" height="80.5"/>
<rect x="-70.4" y="-21" class="st16" width="37.4" height="31.5"/>
<path class="st17" d="M-324.7,523.8c-23.1,17.7-53.4,27.6-86,25.8c-52-2.9-94.8-34.9-110.7-77.7"/>
<path class="st18" d="M-484.8,484.2L-484.8,484.2c-1.1,5.8-6.8,9.6-12.6,8.4l-20-3.9c-5.8-1.1-9.6-6.8-8.4-12.6v0
	c1.1-5.8,6.8-9.6,12.6-8.4l20,3.9C-487.5,472.8-483.7,478.4-484.8,484.2z"/>
<g>
	<path class="st19" d="M-344.6,454.8L-344.6,454.8c28.1-15.2,42.8-39.2,42.2-63.4l-198.4-5l-78.5,5c0,0.4,0,0.8,0,1.2
		c0.5,47.3,50,86.1,112.7,88.9C-424.5,483.3-381.4,474.7-344.6,454.8z"/>
</g>
<path class="st19" d="M-500.5,383.3L-500.5,383.3c0-16.4,3-32.1,8.5-46.6h192.2v46.6H-500.5z"/>
<rect x="-325.9" y="564" class="st19" width="2.4" height="2.4"/>
<path class="st20" d="M-449.1,541.2v30l-16.1-3.1c-5.5-1.1-9.4-5.9-9.4-11.5v-27.5"/>
<path class="st20" d="M-423.6,550.6v15c0,6.3-5.7,11-11.8,9.8l-13.6-2.7v-29.6"/>
<path class="st21" d="M963.7,503.9l-11.6-24.9l-11.8,14.3c-3.7-1.3-7.4-2.6-11.3-3.8l16.8-21.6l-37.8,16.4
	c-16.4-3.3-34.2-5.1-52.7-5.1c-25.2,0-48.9,3.3-69.8,9.2l-37.5-16.2l17.7,22.9c-3.1,1.2-6.1,2.5-9,3.9l-48.5-19.7l25.1,33.3
	c-18.5,13.5-3.8,64-3.8,82.1c0,45.1,42.1,48,125.7,48s111.1-10.7,111.1-55.9C966.3,564.5,990.2,518.6,963.7,503.9z"/>
<circle class="st18" cx="928.5" cy="560.8" r="45.8"/>
<circle class="st18" cx="774.2" cy="567.3" r="52.3"/>
<circle class="st22" cx="774.2" cy="567.3" r="34.8"/>
<circle class="st22" cx="928.5" cy="560.8" r="34.8"/>
<path class="st18" d="M856.5,660.1l-40.4-66.9l1.3-1c22.7-17.1,53.9-17.4,76.8-0.6l0,0L856.5,660.1z"/>
<g>
	<path class="st23" d="M51.9,144.3l143.2,118.5c19.4,16.1,45.9,21.2,69.6,12.8c14.2-5.1,26.9-14.6,35.8-28.2
		c8.9-13.6,12.6-29.1,11.5-44.1c-1.7-25.1-17.1-47.3-39.6-58.7L106.7,60.7L51.9,144.3z"/>
	<polygon points="33.5,140.7 54.3,140.7 67.1,121.1 33.5,93.9 	"/>
	<polygon points="53.8,86.1 33.6,86.1 69.9,115.6 69.9,115.6 71.6,114.2 73,112.1 	"/>
	<polygon points="73,112.1 71.6,114.2 73.5,112.7 	"/>
	<polygon points="76.2,24.6 74.2,71.4 74.2,71.4 96,77 104.9,63.4 	"/>
	<polygon points="92.5,82.4 67.9,76 69.9,29.2 32.3,57.1 53.8,86.1 90,86.1 	"/>
	<polygon points="90,86.1 53.8,86.1 73,112.1 	"/>
	<path class="st24" d="M296,163.3c25.8-18,2.1-35.2,24.6-43.5"/>
	<circle class="st24" cx="221.4" cy="249.8" r="62.4"/>
</g>
</svg>
