<?xml version="1.0" encoding="utf-8"?>
<!-- Generator: Adobe Illustrator 24.1.0, SVG Export Plug-In . SVG Version: 6.00 Build 0)  -->
<svg version="1.1" id="Layer_1" xmlns="http://www.w3.org/2000/svg" xmlns:xlink="http://www.w3.org/1999/xlink" x="0px" y="0px"
	 viewBox="0 0 357.1 357.2" style="enable-background:new 0 0 357.1 357.2;" xml:space="preserve">
<style type="text/css">
	
		.st0{opacity:0.19;fill:none;stroke:#000000;stroke-width:5;stroke-linecap:round;stroke-miterlimit:10;stroke-dasharray:0,12;enable-background:new    ;}
	.st1{fill:none;stroke:#000000;stroke-width:5;stroke-linecap:round;stroke-miterlimit:10;}
	.st2{fill:none;stroke:#000000;stroke-width:5;stroke-linecap:round;stroke-miterlimit:10;stroke-dasharray:0,11.8779;}
	.st3{fill:none;stroke:#000000;stroke-width:5;stroke-linecap:round;stroke-miterlimit:10;stroke-dasharray:0,12.0904;}
	.st4{fill:none;stroke:#000000;stroke-width:5;stroke-linecap:round;stroke-miterlimit:10;stroke-dasharray:0,12.0747;}
	.st5{opacity:0.19;enable-background:new    ;}
	
		.st6{fill:none;stroke:#000000;stroke-width:3.1274;stroke-linecap:round;stroke-linejoin:round;stroke-miterlimit:10;stroke-dasharray:0,5.2123;}
	.st7{opacity:0.2;}
	.st8{fill:none;stroke:#231F20;stroke-width:3.1274;stroke-linecap:round;stroke-dasharray:0,5.2123;}
</style>
<g>
	<path class="st0" d="M1176-131.3c5.5,11,10.5,21.4,15.1,31.4c4.1,8.8,7.9,17.3,11.4,25.3c92.7,214.4-27,166.6-49.3,140.5"/>
	<g>
		<line class="st1" x1="1167" y1="-131.3" x2="1167" y2="-131.3"/>
		<path class="st2" d="M1172.2-120.7c3.5,7.1,6.8,14,9.9,20.7c4.1,8.8,7.9,17.3,11.4,25.3c87.9,203.3-15.2,170.9-45.1,144.7"/>
		<line class="st1" x1="1144.2" y1="65.8" x2="1144.2" y2="65.8"/>
	</g>
</g>
<g>
	<path class="st0" d="M1424.7-34c-44.3-14.1-45.6,59.1-89.3,50.3c-43.6-8.7-130-83.1-130-83.1s165.5,244.2,195.1,243.5"/>
	<g>
		<line class="st1" x1="1415.7" y1="-34" x2="1415.7" y2="-34"/>
		<path class="st3" d="M1403.8-35.8c-33.1,1.3-38,60-77.4,52.1c-37.6-7.5-106.9-63.8-125.4-79.2"/>
		<line class="st1" x1="1196.4" y1="-66.8" x2="1196.4" y2="-66.8"/>
		<path class="st4" d="M1203.2-56.8c29.6,43.1,147.1,212.3,182.6,231.7"/>
		<line class="st1" x1="1391.5" y1="176.7" x2="1391.5" y2="176.7"/>
	</g>
</g>
<g>
	<path class="st5" d="M1147.2,63.3l-1,6.4c-0.3,2.1-3.1,2.5-4,0.7l-12.7-24.3c-1-1.9,1-3.9,2.9-2.9l25.1,12.5c1.8,0.9,1.5,3.6-0.5,4
		l-8.1,1.8C1148,61.7,1147.3,62.4,1147.2,63.3z"/>
	<path d="M1138.2,63.3l-1,6.4c-0.3,2.1-3.1,2.5-4,0.7l-12.7-24.3c-1-1.9,1-3.9,2.9-2.9l25.1,12.5c1.8,0.9,1.5,3.6-0.5,4l-8.1,1.8
		C1139,61.7,1138.3,62.4,1138.2,63.3z"/>
</g>
<g>
	<path class="st5" d="M1433-33.4l-1.6-6.3c-0.5-2,1.8-3.5,3.4-2.2l21.4,17.1c1.6,1.3,0.6,3.9-1.5,3.8l-28.1-1.4
		c-2-0.1-2.8-2.7-1.2-3.9l6.7-4.9C1432.9-31.7,1433.2-32.6,1433-33.4z"/>
	<path d="M1424-33.4l-1.6-6.3c-0.5-2,1.8-3.5,3.4-2.2l21.4,17.1c1.6,1.3,0.6,3.9-1.5,3.8l-28.1-1.4c-2-0.1-2.8-2.7-1.2-3.9l6.7-4.9
		C1423.9-31.7,1424.2-32.6,1424-33.4z"/>
</g>
<g>
	<path class="st5" d="M1411.1,177l-1.6-6.3c-0.5-2,1.8-3.5,3.4-2.2l21.4,17.1c1.6,1.3,0.6,3.9-1.5,3.8l-28.1-1.4
		c-2-0.1-2.8-2.7-1.2-3.9l6.7-4.9C1411,178.8,1411.4,177.9,1411.1,177z"/>
	<path d="M1402.1,177l-1.6-6.3c-0.5-2,1.8-3.5,3.4-2.2l21.4,17.1c1.6,1.3,0.6,3.9-1.5,3.8l-28.1-1.4c-2-0.1-2.8-2.7-1.2-3.9l6.7-4.9
		C1402,178.8,1402.4,177.9,1402.1,177z"/>
</g>
<g>
	<g>
		<path class="st6" d="M41.8,308.2c272.1,1,269-211.6,269-211.6"/>
		<path class="st6" d="M17.3,321.2c272.1,1,317.9-143.3,317.9-143.3"/>
		<path class="st6" d="M12.1,335.7c54.7-1.1,189.1-6.4,324.5-86.1"/>
		<g>
			<path class="st6" d="M153.3,270.5c12.1-22,8.1-44,20.4-66c10.3-22,36.9-44,63.4-66c26.5-22,53-44,63.1-66c12.1-22,7.9-44,19.4-66
				"/>
		</g>
		<g>
			<path class="st6" d="M17.3,270.5c6.2-12.6,8.3-30.7,10.4-48.8c2.1-18.5,4.3-37,10.5-61.1c5.2-21.6,14.5-45.8,25.8-49.4
				c11.3-5.3,24.6,10.1,37.9,28.6c13.2,18.6,26.5,33,37.6,26.8c11.1-4.5,20.2-29.7,25.2-51.4c6-24.4,7.9-42.6,9.7-60.8
				c1.8-17.7,3.6-35.5,9.2-48"/>
		</g>
		<line class="st6" x1="12.1" y1="348.9" x2="335.2" y2="311.3"/>
	</g>
	<g class="st7">
		<path class="st8" d="M51.2,308.2c272.1,1,269-211.6,269-211.6"/>
		<path class="st8" d="M26.7,321.2c272.1,1,317.9-143.3,317.9-143.3"/>
		<path class="st8" d="M21.5,335.7c54.7-1.1,189.1-6.4,324.5-86.1"/>
		<g>
			<path class="st8" d="M162.7,270.5c12.1-22,8.1-44,20.4-66c10.3-22,36.9-44,63.4-66c26.5-22,53-44,63.1-66c12.1-22,7.9-44,19.4-66
				"/>
			<path class="st8" d="M162.7,270.5c12.1-22,8.1-44,20.4-66c10.3-22,36.9-44,63.4-66c26.5-22,53-44,63.1-66c12.1-22,7.9-44,19.4-66
				"/>
		</g>
		<g>
			<path class="st8" d="M26.7,270.5c6.2-12.6,8.3-30.7,10.4-48.8c2.1-18.5,4.3-37,10.5-61.1c5.2-21.6,14.5-45.8,25.8-49.4
				c11.3-5.3,24.6,10.1,37.9,28.6c13.2,18.6,26.5,33,37.6,26.8c11.1-4.5,20.2-29.7,25.2-51.4c6-24.4,7.9-42.6,9.7-60.8
				c1.8-17.7,3.6-35.5,9.2-48"/>
			<path class="st8" d="M26.7,270.5c6.2-12.6,8.3-30.7,10.4-48.8c2.1-18.5,4.3-37,10.5-61.1c5.2-21.6,14.5-45.8,25.8-49.4
				c11.3-5.3,24.6,10.1,37.9,28.6c13.2,18.6,26.5,33,37.6,26.8c11.1-4.5,20.2-29.7,25.2-51.4c6-24.4,7.9-42.6,9.7-60.8
				c1.8-17.7,3.6-35.5,9.2-48"/>
		</g>
		<line class="st8" x1="21.5" y1="348.9" x2="344.6" y2="311.3"/>
	</g>
</g>
</svg>
