<?xml version="1.0" encoding="utf-8"?>
<!-- Generator: Adobe Illustrator 24.1.0, SVG Export Plug-In . SVG Version: 6.00 Build 0)  -->
<svg version="1.1" id="Layer_1" xmlns="http://www.w3.org/2000/svg" xmlns:xlink="http://www.w3.org/1999/xlink" x="0px" y="0px"
	 viewBox="0 0 267.4 146.1" style="enable-background:new 0 0 267.4 146.1;" xml:space="preserve">
<style type="text/css">
	.st0{fill:#A7A9AC;}
	.st1{fill:#58595B;}
	.st2{fill:#F2D337;}
	.st3{fill:#414042;}
	.st4{fill:#808285;}
	.st5{fill:#BCBEC0;}
	.st6{fill:#E6E7E8;}
	.st7{fill:#FFFFFF;}
	.st8{fill:none;stroke:#C3AC2D;stroke-width:3;stroke-miterlimit:10;}
	.st9{fill:none;stroke:#9A8921;stroke-width:3;stroke-miterlimit:10;}
</style>
<g>
	<path class="st0" d="M133.9,14.9L133.9,14.9c-12.8,0-23.1,10.4-23.1,23.1v37.3h46.3V38C157.1,25.3,146.7,14.9,133.9,14.9z
		 M151.6,67.4H116V38.7c0-9.9,8-17.8,17.8-17.8c9.9,0,17.8,8,17.8,17.8V67.4z"/>
	<path class="st1" d="M133.9,18.7L133.9,18.7c-12.8,0-23.1,10.4-23.1,23.1v37.3h46.3V41.9C157.1,29.1,146.7,18.7,133.9,18.7z
		 M151.6,71.3H116V42.5c0-9.9,8-17.8,17.8-17.8c9.9,0,17.8,8,17.8,17.8V71.3z"/>
	<path class="st2" d="M102.5,66.5h64.2c2.5,0,4.4,2,4.4,4.4v53.2c0,2.5-2,4.4-4.4,4.4h-64.2c-2.5,0-4.4-2-4.4-4.4V70.9
		C98.1,68.5,100,66.5,102.5,66.5z"/>
	<g>
		<g>
			<g>
				<path class="st3" d="M140.8,66.2c36.4,16.4,78.1,16.4,114.5,0c0-12.8,0-25.6,0-38.4c-36.4,16.4-78.1,16.4-114.5,0
					C140.8,40.5,140.8,53.3,140.8,66.2z"/>
			</g>
			<g>
				<path class="st4" d="M139.3,64.6c36.4,16.4,78.1,16.4,114.5,0c0-12.8,0-25.6,0-38.4c-36.4,16.4-78.1,16.4-114.5,0
					C139.3,39,139.3,51.8,139.3,64.6z"/>
			</g>
			<g>
				<path class="st5" d="M146.9,63.9c36.4,16.4,78.1,16.4,114.5,0c0-12.8,0-25.6,0-38.4c-36.4,16.4-78.1,16.4-114.5,0
					C146.9,38.3,146.9,51.1,146.9,63.9z"/>
			</g>
			<g>
				<path class="st6" d="M144,61.7c36.4,16.4,78.1,16.4,114.5,0c0-12.8,0-25.6,0-38.4c-36.4,16.4-78.1,16.4-114.5,0
					C144,36,144,48.8,144,61.7z"/>
			</g>
			<g>
				<path class="st6" d="M142.6,60.1c36.4,16.4,78.1,16.4,114.5,0c0-12.8,0-25.6,0-38.4c-36.4,16.4-78.1,16.4-114.5,0
					C142.6,34.5,142.6,47.3,142.6,60.1z"/>
			</g>
		</g>
		<g>
			<path class="st7" d="M150.2,59.4c36.4,16.4,78.1,16.4,114.5,0c0-12.8,0-25.6,0-38.4c-36.4,16.4-78.1,16.4-114.5,0
				C150.2,33.8,150.2,46.6,150.2,59.4z"/>
		</g>
		<g>
			<g>
				<path class="st3" d="M128.3,66.2c-36.4,16.4-78.1,16.4-114.5,0c0-12.8,0-25.6,0-38.4c36.4,16.4,78.1,16.4,114.5,0
					C128.3,40.5,128.3,53.3,128.3,66.2z"/>
			</g>
			<g>
				<path class="st4" d="M129.8,64.6c-36.4,16.4-78.1,16.4-114.5,0c0-12.8,0-25.6,0-38.4c36.4,16.4,78.1,16.4,114.5,0
					C129.8,39,129.8,51.8,129.8,64.6z"/>
			</g>
			<g>
				<path class="st5" d="M122.2,63.9c-36.4,16.4-78.1,16.4-114.5,0c0-12.8,0-25.6,0-38.4c36.4,16.4,78.1,16.4,114.5,0
					C122.2,38.3,122.2,51.1,122.2,63.9z"/>
			</g>
			<g>
				<path class="st6" d="M125.1,61.7C88.7,78.1,47,78.1,10.6,61.7c0-12.8,0-25.6,0-38.4c36.4,16.4,78.1,16.4,114.5,0
					C125.1,36,125.1,48.8,125.1,61.7z"/>
			</g>
			<g>
				<path class="st6" d="M126.5,60.1C90.1,76.6,48.4,76.6,12,60.1c0-12.8,0-25.6,0-38.4c36.4,16.4,78.1,16.4,114.5,0
					C126.5,34.5,126.5,47.3,126.5,60.1z"/>
			</g>
		</g>
		<g>
			<path class="st7" d="M118.9,59.4c-36.4,16.4-78.1,16.4-114.5,0c0-12.8,0-25.6,0-38.4c36.4,16.4,78.1,16.4,114.5,0
				C118.9,33.8,118.9,46.6,118.9,59.4z"/>
		</g>
	</g>
	<line class="st8" x1="98.1" y1="86.7" x2="171.2" y2="86.7"/>
	<line class="st8" x1="98.1" y1="101.8" x2="171.2" y2="101.8"/>
	<line class="st9" x1="98.1" y1="85.6" x2="171.2" y2="85.6"/>
	<line class="st9" x1="98.1" y1="100.7" x2="171.2" y2="100.7"/>
</g>
</svg>
